<?xml version="1.0" encoding="utf-8"?>
<!-- Generator: Adobe Illustrator 24.3.0, SVG Export Plug-In . SVG Version: 6.00 Build 0)  -->
<svg version="1.1" id="Calque_1" xmlns="http://www.w3.org/2000/svg" xmlns:xlink="http://www.w3.org/1999/xlink" x="0px" y="0px"
	 viewBox="0 0 90.7 59.5" style="enable-background:new 0 0 90.7 59.5;" xml:space="preserve">
<style type="text/css">
	.st0{fill:#EA4E4E;}
</style>
<g>
	<path class="st0" d="M86.8,0H3.9C3.7,0,3.6,0,3.4,0l35,33c3.8,3.6,10,3.6,13.8,0l35-33C87.1,0,87,0,86.8,0z"/>
	<path class="st0" d="M62.5,29.8l28.1,26.5c0-0.2,0.1-0.4,0.1-0.6V3.9c0-0.2,0-0.4-0.1-0.6L62.5,29.8z"/>
	<path class="st0" d="M35.3,36.4L31.6,33L3.4,59.5c0.1,0,0.3,0,0.4,0h82.9c0.2,0,0.3,0,0.4,0L59.1,33l-3.7,3.4
		c-2.8,2.6-6.4,3.9-10.1,3.9C41.7,40.3,38,39,35.3,36.4z"/>
	<path class="st0" d="M28.2,29.8L0.1,3.3C0,3.5,0,3.7,0,3.9v51.8c0,0.2,0,0.4,0.1,0.6L28.2,29.8z"/>
</g>
</svg>
