<?xml version="1.0" encoding="utf-8"?>
<!-- Generator: Adobe Illustrator 24.3.0, SVG Export Plug-In . SVG Version: 6.00 Build 0)  -->
<svg version="1.1" id="Calque_1" xmlns="http://www.w3.org/2000/svg" xmlns:xlink="http://www.w3.org/1999/xlink" x="0px" y="0px"
	 viewBox="0 0 90.7 90.7" style="enable-background:new 0 0 90.7 90.7;" xml:space="preserve">
<style type="text/css">
	.st0{fill:#EA4E4E;}
</style>
<g>
	<path class="st0" d="M26.2,28.5c1.2-0.9,1.6-2.7,0.9-4L17,3.2c-0.5-1-1.4-1.6-2.4-1.6c-0.6,0-1.3,0.2-1.8,0.7
		C4.8,8.9,0.5,13.3,0.1,15.4C0,16.2-3,34.4,26.6,64.1c24.1,24.1,40.5,26.7,46.4,26.7c1.1,0,1.8-0.1,2.2-0.2
		c2.1-0.4,6.5-4.6,13.2-12.6c0.6-0.7,0.8-1.6,0.6-2.4c-0.2-0.8-0.8-1.5-1.6-1.9L66.2,63.6c-0.4-0.2-0.9-0.3-1.4-0.3
		c-1,0-2,0.5-2.6,1.2l-4.6,5.8c-0.2,0.2-0.4,0.3-0.7,0.3c-0.1,0-0.4,0-0.6-0.2c0,0-0.1,0-0.1-0.1c-0.1-0.1-9.6-6.5-19.5-16.4
		C26.8,44,20.4,34.5,20.3,34.4c0,0,0-0.1-0.1-0.1c-0.2-0.2-0.2-0.4-0.2-0.7c0-0.2,0.1-0.4,0.3-0.6L26.2,28.5z"/>
	<path class="st0" d="M40.9,29.1c11.4,0,20.7,9.3,20.7,20.7h5.6c0-14.5-11.8-26.3-26.3-26.3C40.9,23.5,40.9,29.1,40.9,29.1z"/>
	<path class="st0" d="M40.9,17.4c8.7,0,16.8,3.4,22.9,9.5c6.1,6.1,9.5,14.3,9.5,22.9H79c0-10.2-4-19.7-11.1-26.9
		c-7.2-7.2-16.7-11.1-26.9-11.1V17.4z"/>
	<path class="st0" d="M85.1,49.8h5.6c0-13.3-5.2-25.8-14.6-35.2C66.7,5.2,54.2,0,40.9,0v5.6c11.8,0,22.9,4.6,31.2,12.9
		C80.5,26.9,85.1,38,85.1,49.8z"/>
</g>
</svg>
